<svg width="25" height="25" viewBox="0 0 25 25" fill="#0088CC"  xmlns="http://www.w3.org/2000/svg">
<path  d="M14.0712 5.64665C12.2183 6.38289 8.52363 7.90317 2.99296 10.205C2.52245 10.3844 2.11671 10.5786 1.80884 10.797C1.52287 10.9999 1.17687 11.3257 1.11373 11.8068C1.06408 12.1851 1.17942 12.5247 1.4051 12.7896C1.60431 13.0235 1.86671 13.1736 2.09179 13.2778C2.43016 13.4344 2.88242 13.57 3.32004 13.7012C3.44476 13.7386 3.56829 13.7756 3.68766 13.8127C4.18255 13.9663 4.7679 14.1347 5.3211 14.2672C5.85771 14.3958 6.42119 14.505 6.84735 14.5137C7.66921 14.5307 8.50456 14.2079 9.33166 13.6658C11.0673 12.5466 12.5201 11.6138 13.6907 10.8671C13.2968 11.2192 12.9172 11.5566 12.5938 11.8439C12.0961 12.2862 11.7317 12.6099 11.6545 12.6865C11.5316 12.8085 11.4046 12.9265 11.2731 13.0477C11.2583 13.0614 11.2433 13.0752 11.2282 13.0891C11.1134 13.1948 10.9933 13.3054 10.8815 13.4141C10.6415 13.6473 10.357 13.9477 10.1925 14.3059C10.0023 14.7203 9.98006 15.1963 10.238 15.6681C10.463 16.0798 10.8684 16.4252 11.3741 16.7436C12.1449 17.2288 12.7615 17.6299 13.3811 18.033L13.4659 18.0882C14.1144 18.51 14.773 18.9376 15.6147 19.4647C15.8238 19.5956 16.0222 19.7307 16.2288 19.8714C16.2713 19.9003 16.3141 19.9295 16.3574 19.9589C16.6042 20.1263 16.8666 20.3011 17.1373 20.453C17.684 20.7598 18.325 21.0086 19.0876 20.9416C20.1165 20.8511 20.7714 19.9322 21.0561 18.4782C21.6848 15.2674 22.9286 8.27176 23.2185 5.36259C23.2524 5.02193 23.2119 4.62744 23.1787 4.44164C23.1438 4.24697 23.0467 3.81307 22.6295 3.48972C22.3968 3.30931 22.1355 3.22271 21.9426 3.17866C21.744 3.13333 21.5566 3.11933 21.422 3.12149L21.4212 3.1215C20.9352 3.12977 20.3849 3.26068 19.3557 3.61745C18.3146 3.97837 16.7062 4.59969 14.0712 5.64665Z"  stroke-width="1.5"/>
</svg>

