<svg viewBox="0 0 24 24" xmlns="http://www.w3.org/2000/svg">
    <path fill-rule="evenodd" clip-rule="evenodd"
          d="M12 0C5.37258 0 0 5.37258 0 12C0 18.6274 5.37258 24 12 24C18.6274 24 24 18.6274 24 12C24 5.37258 18.6274 0 12 0ZM12.9771 15.7882C12.8588 15.9129 12.6278 15.9381 12.6278 15.9381H11.8628C11.8628 15.9381 10.1749 16.0377 8.68808 14.5186C7.06661 12.8612 5.63484 9.57284 5.63484 9.57284C5.63484 9.57284 5.5522 9.35714 5.64173 9.25328C5.74252 9.13591 6.01736 9.12854 6.01736 9.12854L7.84604 9.11686C7.84604 9.11686 8.01821 9.14451 8.14154 9.23362C8.24358 9.30736 8.30055 9.4444 8.30055 9.4444C8.30055 9.4444 8.59605 10.1781 8.98733 10.8418C9.75174 12.1379 10.1073 12.4212 10.3665 12.2823C10.7446 12.0801 10.6313 10.4504 10.6313 10.4504C10.6313 10.4504 10.6382 9.85921 10.441 9.59558C10.2883 9.39155 10.0003 9.33194 9.87319 9.31535C9.76989 9.30183 9.93892 9.06708 10.158 8.962C10.4873 8.80406 11.0683 8.79485 11.7551 8.80161C12.2904 8.80714 12.4444 8.83971 12.6535 8.88948C13.1388 9.00443 13.1236 9.37283 13.0909 10.1679C13.0811 10.4057 13.0698 10.6816 13.0698 11.0004C13.0698 11.072 13.0677 11.1484 13.0655 11.2269C13.0541 11.6342 13.0411 12.1007 13.3146 12.2743C13.4548 12.3628 13.7973 12.2872 14.6543 10.859C15.0606 10.1818 15.3649 9.38602 15.3649 9.38602C15.3649 9.38602 15.4319 9.24407 15.5352 9.18323C15.641 9.12116 15.7837 9.14021 15.7837 9.14021L17.7082 9.12854C17.7082 9.12854 18.2867 9.06032 18.3799 9.31719C18.4782 9.58574 18.164 10.2138 17.3776 11.2425C16.6317 12.2186 16.2688 12.578 16.3021 12.8958C16.3264 13.1281 16.5624 13.3381 17.0152 13.7504C17.9604 14.6118 18.2137 15.065 18.2746 15.1739C18.2796 15.1829 18.2833 15.1896 18.286 15.1939C18.7099 15.884 17.8159 15.9381 17.8159 15.9381L16.1061 15.9615C16.1061 15.9615 15.7393 16.0327 15.256 15.707C15.0028 15.5366 14.7554 15.2582 14.5197 14.993C14.1599 14.588 13.8275 14.2139 13.5437 14.3022C13.0673 14.451 13.0817 15.4582 13.0817 15.4582C13.0817 15.4582 13.0854 15.6739 12.9771 15.7882Z"
    />
</svg>

