<svg width="18" height="18" viewBox="0 0 18 18" xmlns="http://www.w3.org/2000/svg">
<path fill-rule="evenodd" clip-rule="evenodd" d="M14.3549 4.07078C12.9674 2.68328 11.1174 1.94328 9.1749 1.94328C5.1049 1.94328 1.7749 5.27328 1.7749 9.34328C1.7749 10.6267 2.1383 11.9101 2.77506 13.0134C2.78611 13.0325 2.7891 13.0553 2.78324 13.0766L1.88826 16.3311C1.8379 16.5142 2.00475 16.6831 2.18845 16.635L5.63 15.7336C5.64928 15.7286 5.66974 15.7307 5.68759 15.7396C6.78989 16.2869 7.98239 16.6508 9.1749 16.6508C13.2449 16.6508 16.5749 13.3208 16.5749 9.25078C16.5749 7.30828 15.7424 5.45828 14.3549 4.07078ZM9.1749 15.4483C8.0649 15.4483 6.95491 15.1708 6.02991 14.6158L5.87326 14.5375C5.85501 14.5283 5.83401 14.5263 5.81435 14.5318L3.67489 15.1309C3.61279 15.1483 3.55577 15.0906 3.57383 15.0287L4.17991 12.9508L3.9949 12.6733C3.3474 11.6558 3.0699 10.5458 3.0699 9.43578C3.0699 6.10578 5.8449 3.33078 9.1749 3.33078C10.8399 3.33078 12.3199 3.97828 13.5224 5.08828C14.7249 6.29078 15.2799 7.77078 15.2799 9.43578C15.2799 12.6733 12.5974 15.4483 9.1749 15.4483ZM12.5049 10.8233C12.3199 10.7308 11.3949 10.2683 11.2099 10.2683C11.0249 10.1758 10.9324 10.1758 10.8399 10.3608C10.7474 10.5458 10.3774 10.9158 10.2849 11.1008C10.1924 11.1933 10.0999 11.1933 9.91489 11.1933C9.72989 11.1008 9.17491 10.9158 8.43491 10.2683C7.87991 9.80578 7.50991 9.15828 7.41741 8.97328C7.32491 8.78828 7.41741 8.69578 7.50991 8.60328C7.60241 8.51078 7.6949 8.41828 7.7874 8.32578C7.8799 8.23328 7.87991 8.14078 7.97241 8.04828C8.06491 7.95578 7.97241 7.86328 7.97241 7.77078C7.97241 7.67828 7.60241 6.75328 7.41741 6.38328C7.32491 6.10578 7.13991 6.10578 7.04741 6.10578C6.95491 6.10578 6.86239 6.10578 6.67739 6.10578C6.58489 6.10578 6.39989 6.10578 6.21489 6.29078C6.02989 6.47578 5.56741 6.93828 5.56741 7.86328C5.56741 8.78828 6.2149 9.62078 6.3074 9.80578C6.3999 9.89828 7.60239 11.8408 9.45239 12.5808C11.0249 13.2283 11.3024 13.0433 11.6724 13.0433C12.0424 13.0433 12.7824 12.5808 12.8749 12.2108C13.0599 11.7483 13.0599 11.3783 12.9674 11.3783C12.8749 10.9158 12.6899 10.9158 12.5049 10.8233Z" />
</svg>
